<mxfile host="app.diagrams.net" modified="2024-04-01T05:06:18.716Z" agent="Mozilla/5.0 (Windows NT 10.0; Win64; x64) AppleWebKit/537.36 (KHTML, like Gecko) Chrome/123.0.0.0 Safari/537.36" etag="MWW-DLruEnJQmspOslPH" version="24.2.1" type="google">
  <diagram name="Page-1" id="jgPfOoxIu82hTp6Df_o9">
    <mxGraphModel grid="1" page="1" gridSize="10" guides="1" tooltips="1" connect="1" arrows="1" fold="1" pageScale="1" pageWidth="850" pageHeight="1100" math="0" shadow="0">
      <root>
        <mxCell id="0" />
        <mxCell id="1" parent="0" />
        <mxCell id="7FBoQvQYy-MmHzIGXFBa-1" value="MyDate" style="swimlane;fontStyle=1;align=center;verticalAlign=top;childLayout=stackLayout;horizontal=1;startSize=26;horizontalStack=0;resizeParent=1;resizeParentMax=0;resizeLast=0;collapsible=1;marginBottom=0;whiteSpace=wrap;html=1;" vertex="1" parent="1">
          <mxGeometry x="340" y="250" width="160" height="160" as="geometry" />
        </mxCell>
        <mxCell id="7FBoQvQYy-MmHzIGXFBa-2" value="-year: int&lt;div&gt;-month: int&lt;/div&gt;&lt;div&gt;-day: int&lt;/div&gt;" style="text;strokeColor=none;fillColor=none;align=left;verticalAlign=top;spacingLeft=4;spacingRight=4;overflow=hidden;rotatable=0;points=[[0,0.5],[1,0.5]];portConstraint=eastwest;whiteSpace=wrap;html=1;" vertex="1" parent="7FBoQvQYy-MmHzIGXFBa-1">
          <mxGeometry y="26" width="160" height="54" as="geometry" />
        </mxCell>
        <mxCell id="7FBoQvQYy-MmHzIGXFBa-3" value="" style="line;strokeWidth=1;fillColor=none;align=left;verticalAlign=middle;spacingTop=-1;spacingLeft=3;spacingRight=3;rotatable=0;labelPosition=right;points=[];portConstraint=eastwest;strokeColor=inherit;" vertex="1" parent="7FBoQvQYy-MmHzIGXFBa-1">
          <mxGeometry y="80" width="160" height="8" as="geometry" />
        </mxCell>
        <mxCell id="7FBoQvQYy-MmHzIGXFBa-4" value="+getYear(): int&lt;div&gt;+getMonth(): int&lt;/div&gt;&lt;div&gt;+getDay(): int&lt;/div&gt;&lt;div&gt;+setDate(): void&lt;/div&gt;" style="text;strokeColor=none;fillColor=none;align=left;verticalAlign=top;spacingLeft=4;spacingRight=4;overflow=hidden;rotatable=0;points=[[0,0.5],[1,0.5]];portConstraint=eastwest;whiteSpace=wrap;html=1;" vertex="1" parent="7FBoQvQYy-MmHzIGXFBa-1">
          <mxGeometry y="88" width="160" height="72" as="geometry" />
        </mxCell>
      </root>
    </mxGraphModel>
  </diagram>
</mxfile>
